<svg width="16" height="16" viewBox="0 0 16 16" fill="none" xmlns="http://www.w3.org/2000/svg">
<path d="M6.75727 2.56231C7.17233 1.36823 8.86104 1.36823 9.2761 2.56231L9.90646 4.37575C10.0896 4.90251 10.5811 5.25967 11.1387 5.27103L13.0582 5.31015C14.3221 5.3359 14.8439 6.94196 13.8365 7.7057L12.3066 8.86558C11.8623 9.2025 11.6745 9.7804 11.836 10.3142L12.3919 12.1518C12.758 13.3618 11.3918 14.3544 10.3541 13.6323L8.77826 12.5357C8.32051 12.2172 7.71287 12.2172 7.25511 12.5357L5.67924 13.6323C4.64158 14.3544 3.27538 13.3618 3.64145 12.1518L4.1974 10.3142C4.35889 9.7804 4.17112 9.2025 3.72672 8.86558L2.19683 7.7057C1.18946 6.94196 1.71129 5.3359 2.97519 5.31015L4.89467 5.27103C5.45223 5.25967 5.94382 4.90251 6.12692 4.37575L6.75727 2.56231Z" fill="#FFC554"/>
</svg>
