<svg width="28" height="28" viewBox="0 0 28 28" fill="none" xmlns="http://www.w3.org/2000/svg">
<path opacity="0.4" fill-rule="evenodd" clip-rule="evenodd" d="M11.8365 5.65617C11.3761 5.77138 11.0314 5.96812 10.6843 6.31396C10.3267 6.67019 10.1106 7.06246 10.011 7.53593C9.97412 7.71123 9.95006 8.46186 9.95006 9.43602V11.0464H18.9721H27.9941V9.43602C27.9941 8.44234 27.9704 7.71473 27.9321 7.53593C27.7305 6.59414 26.9732 5.8364 26.0366 5.63944C25.5983 5.5472 12.2088 5.563 11.8365 5.65617ZM20.9966 7.60231C21.2392 7.7261 21.4326 8.0411 21.4326 8.31242C21.4326 8.73033 21.0284 9.1326 20.6084 9.1326C20.3541 9.1326 20.0163 8.91996 19.896 8.68413C19.6941 8.28831 19.8208 7.85618 20.2074 7.6221C20.4692 7.46364 20.7128 7.45752 20.9966 7.60231ZM24.2773 7.60231C24.52 7.7261 24.7134 8.0411 24.7134 8.31242C24.7134 8.73033 24.3091 9.1326 23.8891 9.1326C23.6348 9.1326 23.297 8.91996 23.1767 8.68413C22.9748 8.28831 23.1015 7.85618 23.4882 7.6221C23.75 7.46364 23.9935 7.45752 24.2773 7.60231Z" fill="#2C2B46"/>
<path fill-rule="evenodd" clip-rule="evenodd" d="M1.88642 0.078326C1.42603 0.193534 1.08138 0.390269 0.734227 0.736113C0.376682 1.09235 0.160537 1.48461 0.0609664 1.95808C0.0195198 2.15514 0 3.46317 0 6.04532V9.84283H4.15559H8.31119V8.74695C8.31119 7.53527 8.3774 7.06312 8.63303 6.4517C9.02874 5.50526 9.86019 4.67261 10.8143 4.26727C11.5382 3.95976 11.786 3.93751 14.4876 3.93751H16.9505V3.09266C16.9505 2.628 16.9226 2.11747 16.8884 1.95808C16.6869 1.01629 15.9296 0.258548 14.993 0.0615943C14.5554 -0.030485 2.2584 -0.0147375 1.88642 0.078326ZM4.48509 4.48501C4.62403 4.55587 4.74017 4.67201 4.81103 4.81095C4.91192 5.00878 4.9211 5.1318 4.9211 6.2887C4.9211 7.44559 4.91192 7.56862 4.81103 7.76645C4.68658 8.01037 4.37191 8.20246 4.09687 8.20246C3.84256 8.20246 3.50475 7.98981 3.38446 7.75398C3.29117 7.57114 3.28095 7.42241 3.28303 6.27722C3.2856 4.83408 3.30758 4.73986 3.69591 4.5048C3.95771 4.34634 4.20125 4.34022 4.48509 4.48501ZM0 18.6161C0 23.7268 0.0176084 25.8311 0.0620077 26.0388C0.263062 26.9781 1.01806 27.7332 1.95745 27.9342C2.15604 27.9767 3.32983 27.9962 5.68863 27.9962H9.13L8.93994 27.6991C8.74523 27.3947 8.58376 27.0306 8.42913 26.5472C8.35116 26.3033 8.3399 25.4761 8.32513 18.8785L8.30851 11.4832H4.15428H0V18.6161ZM9.95156 19.2176C9.95156 23.8799 9.96933 25.8319 10.0136 26.0388C10.2146 26.9781 10.9696 27.7332 11.909 27.9342C12.3155 28.0212 25.6253 28.0221 26.0381 27.9352C26.966 27.7398 27.7409 26.965 27.9349 26.0388C27.9774 25.8359 27.9956 23.7915 27.9956 19.2176V12.6861H18.9736H9.95156V19.2176ZM4.48509 13.2336C4.62403 13.3045 4.74017 13.4206 4.81103 13.5596C4.91629 13.7659 4.9211 13.878 4.9211 16.1309C4.9211 18.3838 4.91629 18.4959 4.81103 18.7022C4.68658 18.9461 4.37191 19.1382 4.09687 19.1382C3.84256 19.1382 3.50475 18.9256 3.38446 18.6898C3.28724 18.4992 3.2809 18.3382 3.28303 16.1194C3.2856 13.4553 3.27827 13.5063 3.69591 13.2534C3.95771 13.095 4.20125 13.0888 4.48509 13.2336ZM20.2585 14.4869C22.0805 14.9621 23.5084 16.3985 24.0126 18.2634C24.1166 18.6479 24.1383 18.8651 24.1383 19.521C24.1383 20.1769 24.1166 20.3941 24.0126 20.7786C23.5087 22.6422 22.1005 24.0604 20.2585 24.5595C19.6112 24.7349 18.3678 24.7346 17.716 24.5589C15.8476 24.0552 14.4432 22.6578 13.9323 20.7941C13.7641 20.1807 13.7641 18.8613 13.9323 18.2478C14.4973 16.1866 16.1574 14.7063 18.2901 14.362C18.6691 14.3008 19.8268 14.3743 20.2585 14.4869ZM18.2081 16.0519C17.2265 16.2627 16.2565 17.0244 15.8096 17.9353C15.5529 18.4585 15.4214 18.9956 15.4214 19.521C15.4214 20.8282 16.2188 22.1113 17.3879 22.685C18.4408 23.2016 19.5064 23.2016 20.5593 22.685C21.4822 22.2321 22.2356 21.2633 22.4457 20.2592C22.613 19.4595 22.5121 18.6986 22.1376 17.9353C21.8176 17.2831 21.2114 16.677 20.5593 16.357C19.7988 15.9838 19.0047 15.8808 18.2081 16.0519Z" fill="#2C2B46"/>
</svg>
