<svg width="22" height="33" viewBox="0 0 22 33" fill="none" xmlns="http://www.w3.org/2000/svg">
<path fill-rule="evenodd" clip-rule="evenodd" d="M4.44901 0.0662616C4.21019 0.176823 3.99605 0.404395 3.90527 0.644094C3.86078 0.761557 3.83647 1.72326 3.83647 3.36625V5.90683L2.22909 5.92612C0.46057 5.94734 0.463406 5.94669 0.132954 6.38952C0.0046419 6.56149 0 6.6458 0 8.81586C0 10.9859 0.0046419 11.0702 0.132954 11.2422C0.414209 11.6191 0.572114 11.6846 1.25636 11.7083L1.89115 11.7303L1.91946 14.7078C1.9457 17.4635 1.95822 17.7321 2.08743 18.3138C2.47314 20.0506 3.23186 21.437 4.47997 22.6856C5.49409 23.7002 6.57242 24.3738 7.87708 24.8078C8.43727 24.9942 9.32243 25.2 9.56352 25.2C9.66681 25.2 9.69912 25.2795 9.76669 25.6999C9.96973 26.963 10.6232 28.4878 11.4073 29.5278C12.9338 31.5526 15.3101 32.8271 17.8482 32.9825C18.4066 33.0167 18.5505 33.005 18.7519 32.9094C19.4076 32.5981 19.4946 31.6696 18.9073 31.2512C18.7533 31.1415 18.5676 31.1013 18.0194 31.0587C15.4846 30.8615 13.3813 29.4756 12.3101 27.2964C12.0277 26.722 11.6384 25.5443 11.6384 25.2645C11.6384 25.238 11.8951 25.1694 12.2087 25.112C13.8909 24.8042 15.3743 24.0297 16.6459 22.7954C18.0584 21.4243 18.9286 19.7498 19.2175 17.8465C19.2875 17.3856 19.3107 16.5517 19.3109 14.482L19.3113 11.7303L19.9722 11.7083C20.531 11.6897 20.6643 11.6641 20.8347 11.5425C21.2346 11.2571 21.2457 11.1839 21.2457 8.81586C21.2457 6.44783 21.2346 6.37462 20.8347 6.08925C20.6409 5.95095 20.5701 5.94463 19.005 5.92618L17.377 5.90696V3.32349C17.377 0.468125 17.3741 0.446065 16.966 0.154826C16.8199 0.0505225 16.6727 0.0109812 16.4306 0.0109812C16.07 0.0109812 15.8511 0.129089 15.6078 0.455031C15.4794 0.627065 15.4742 0.72208 15.4567 3.27311L15.4385 5.91315H10.6047H5.77082V3.32658C5.77082 0.477801 5.76664 0.444839 5.37009 0.162373C5.13198 -0.0072736 4.70435 -0.0519108 4.44901 0.0662616ZM11.0335 11.8233C11.4342 12.0135 11.6602 12.5271 11.5451 12.9859C11.5202 13.085 11.2412 13.4286 10.9176 13.7588L10.3349 14.3532L11.7565 15.0688C13.2266 15.8088 13.4073 15.9417 13.4815 16.3372C13.5777 16.85 13.5074 16.9607 12.3259 18.1566C11.7172 18.7728 11.1409 19.3179 11.0452 19.368C10.4932 19.6568 9.74766 19.2312 9.65997 18.5771C9.6122 18.2207 9.74811 17.9849 10.3691 17.3469C10.6538 17.0544 10.8746 16.804 10.8596 16.7905C10.8446 16.777 10.1893 16.4429 9.40342 16.0482C8.02061 15.3538 7.97012 15.3216 7.83981 15.0524C7.55114 14.4558 7.68462 14.211 9.01726 12.8931C9.59711 12.3197 10.1412 11.8227 10.2263 11.7887C10.4638 11.6936 10.7898 11.7076 11.0335 11.8233Z" fill="#2C2B46"/>
</svg>
