<svg width="22" height="22" viewBox="0 0 22 22" fill="none" xmlns="http://www.w3.org/2000/svg">
<path fill-rule="evenodd" clip-rule="evenodd" d="M6.41671 1.83325C6.92297 1.83325 7.33337 2.24366 7.33337 2.74992V3.66659H14.6667V2.74992C14.6667 2.24366 15.0771 1.83325 15.5834 1.83325C16.0896 1.83325 16.5 2.24366 16.5 2.74992V3.66659H17.4167C18.9355 3.66659 20.1667 4.8978 20.1667 6.41659V17.4166C20.1667 18.9354 18.9355 20.1666 17.4167 20.1666H4.58337C3.06459 20.1666 1.83337 18.9354 1.83337 17.4166V6.41659C1.83337 4.8978 3.06459 3.66659 4.58337 3.66659H5.50004V2.74992C5.50004 2.24366 5.91045 1.83325 6.41671 1.83325ZM14.6667 5.49992V6.41659C14.6667 6.92285 15.0771 7.33325 15.5834 7.33325C16.0896 7.33325 16.5 6.92285 16.5 6.41659V5.49992H17.4167C17.923 5.49992 18.3334 5.91032 18.3334 6.41659V9.16659H3.66671V6.41659C3.66671 5.91033 4.07711 5.49992 4.58337 5.49992H5.50004V6.41659C5.50004 6.92285 5.91045 7.33325 6.41671 7.33325C6.92297 7.33325 7.33337 6.92285 7.33337 6.41659V5.49992H14.6667ZM3.66671 10.9999V17.4166C3.66671 17.9228 4.07711 18.3333 4.58337 18.3333H17.4167C17.923 18.3333 18.3334 17.9228 18.3334 17.4166V10.9999H3.66671Z" fill="#6F767E"/>
</svg>
