<svg width="11" height="10" viewBox="0 0 11 10" fill="none" xmlns="http://www.w3.org/2000/svg">
<path d="M4.16922 0.733466C4.50915 -0.244488 5.89221 -0.244489 6.23215 0.733464L6.74841 2.21867C6.89837 2.65009 7.30098 2.94261 7.75762 2.95191L9.32967 2.98395C10.3648 3.00504 10.7922 4.32041 9.96715 4.94591L8.71417 5.89586C8.3502 6.17179 8.19642 6.64509 8.32868 7.08226L8.784 8.58727C9.08381 9.57826 7.9649 10.3912 7.11506 9.79983L5.82441 8.90172C5.44951 8.64084 4.95185 8.64084 4.57695 8.90172L3.28631 9.79983C2.43647 10.3912 1.31755 9.57826 1.61736 8.58727L2.07268 7.08226C2.20494 6.64509 2.05116 6.17179 1.6872 5.89586L0.434214 4.94591C-0.390828 4.32041 0.0365584 3.00504 1.07169 2.98395L2.64374 2.95191C3.10039 2.94261 3.503 2.65009 3.65296 2.21867L4.16922 0.733466Z" fill="white"/>
</svg>
