<svg width="41" height="40" viewBox="0 0 41 40" fill="none" xmlns="http://www.w3.org/2000/svg">
<rect x="0.3659" y="0.3659" width="39.5172" height="39.2682" rx="19.6341" stroke="#C4C4C4" stroke-opacity="0.3" stroke-width="0.7318"/>
<g clip-path="url(#clip0_3772_6029)">
<path d="M21.7654 30.7372C21.7654 30.7372 24.5874 21.5102 31.6734 18.5426C31.9541 18.4291 32.0632 18.0804 31.9073 17.8129L31.8995 17.8048C31.7748 17.594 31.5253 17.5048 31.3071 17.594C29.748 18.2183 23.9404 21.1291 21.4536 30.7453H21.7654V30.7372Z" fill="#A62170"/>
<path d="M26.9497 22.475C26.9497 22.475 28.5478 19.9534 32.2038 19.9453C32.3909 19.9453 32.5235 20.1156 32.4923 20.3102V20.3183C32.4689 20.4561 32.352 20.5615 32.2194 20.5696C31.4477 20.6102 28.922 20.8615 26.9497 22.475Z" fill="#964595"/>
<path d="M24.2681 22.7995C24.2603 22.7995 24.2603 22.7995 24.2681 22.7995C24.2525 22.8158 24.2447 22.8239 24.2369 22.832C24.2291 22.8401 24.2135 22.8563 24.1979 22.8725C24.1901 22.8806 24.1823 22.8887 24.1667 22.8968C24.1277 22.9293 24.0732 22.9779 24.0108 23.0347C23.8705 23.1563 23.6678 23.3104 23.4106 23.4725C23.356 23.5131 23.2936 23.5455 23.2313 23.586C22.8883 23.7887 22.4595 24.0077 21.9528 24.186C21.9528 24.186 19.4349 17.7887 14.6952 16.1833C14.1106 10.159 18.7255 6.49414 18.7255 6.49414C18.7255 6.49414 30.2628 11.7887 24.2681 22.7995Z" fill="#EC5699"/>
<path d="M24.2681 22.7998C24.2604 22.7998 24.2604 22.8079 24.2681 22.7998C24.237 22.8485 24.1356 23.0187 23.9485 23.3593C23.473 24.243 22.4518 26.2782 20.7914 30.2917C18.3748 36.1295 11.3979 32.1971 11.3979 32.1971C11.2342 28.889 11.7954 26.9593 12.7387 25.8485C14.2276 24.1052 16.6442 24.4052 18.5853 24.5349C18.8503 24.5512 19.0998 24.5674 19.3414 24.5755C20.3548 24.5998 21.2279 24.4295 21.9373 24.1782C22.444 23.9998 22.8728 23.789 23.2158 23.5782C23.2781 23.5376 23.3405 23.5052 23.3951 23.4647C23.6523 23.3025 23.855 23.1403 23.9953 23.0268C24.0577 22.9782 24.1122 22.9295 24.1512 22.889C24.159 22.8809 24.1746 22.8728 24.1824 22.8647C24.198 22.8485 24.2136 22.8322 24.2214 22.8241C24.2448 22.816 24.2526 22.8079 24.2681 22.7998C24.2604 22.7998 24.2604 22.7998 24.2681 22.7998Z" fill="#851E83"/>
<path d="M21.9451 24.1775C21.2279 24.4289 20.3626 24.5991 19.3492 24.5748C19.1075 24.5667 18.8503 24.5505 18.593 24.5343C16.0127 21.4208 14.9292 18.6072 14.6953 16.1748C19.4349 17.7802 21.9451 24.1775 21.9451 24.1775Z" fill="#A71982"/>
<path d="M18.5929 24.5345C16.6519 24.4048 14.2275 24.1048 12.7463 25.848C7.60914 23.0426 7.5 17.5534 7.5 17.5534C10.283 15.6723 12.684 15.4939 14.6952 16.175C14.9291 18.6075 16.0126 21.421 18.5929 24.5345Z" fill="#A9248A"/>
</g>
<defs>
<clipPath id="clip0_3772_6029">
<rect width="25" height="27" fill="white" transform="translate(7.5 6.49414)"/>
</clipPath>
</defs>
</svg>
