<svg width="51" height="51" viewBox="0 0 51 51" fill="none" xmlns="http://www.w3.org/2000/svg">
<circle cx="25.5241" cy="25.4759" r="25.4759" fill="#D5F4ED"/>
<rect y="0.00199015" width="50.9478" height="50.9478" rx="25" fill="#FFBC99"/>
<path opacity="0.3" fill-rule="evenodd" clip-rule="evenodd" d="M22.5845 30.6143C22.2103 30.8121 22.1899 30.8853 22.1566 32.1481C22.1238 33.3939 22.0887 33.5503 21.7667 33.8897C21.5488 34.1194 21.1171 34.3258 20.8531 34.3264C20.4298 34.3276 20.0477 34.6225 19.9763 35.0034C19.924 35.2819 20.0789 35.6435 20.3209 35.8079C20.6774 36.0502 21.5037 35.9588 22.1864 35.6016C22.5839 35.3937 23.157 34.833 23.3875 34.4267C23.693 33.888 23.7735 33.4317 23.7735 32.2372C23.7735 31.2865 23.7629 31.165 23.6626 30.9578C23.5822 30.7916 23.4891 30.6985 23.3228 30.618C23.0414 30.4818 22.8372 30.4808 22.5845 30.6143ZM25.0972 30.6291C24.6866 30.8645 24.6881 30.8554 24.6882 33.2232C24.6882 35.564 24.6894 35.5718 25.0592 35.8188C25.4423 36.0748 25.9992 35.9248 26.2078 35.5095C26.2926 35.3408 26.3019 35.1142 26.302 33.2232C26.3021 31.2824 26.2945 31.1101 26.2023 30.9367C26.0811 30.7089 25.7505 30.509 25.4951 30.509C25.3915 30.509 25.2125 30.563 25.0972 30.6291ZM27.6633 30.6191C27.5019 30.6989 27.4058 30.7961 27.327 30.9588C27.2273 31.1648 27.2167 31.288 27.2167 32.2372C27.2167 33.4317 27.2971 33.888 27.6026 34.4267C27.8331 34.833 28.4063 35.3937 28.8038 35.6016C29.4864 35.9588 30.3128 36.0502 30.6693 35.8079C30.9112 35.6435 31.0661 35.2819 31.0139 35.0034C30.9424 34.6225 30.5603 34.3276 30.137 34.3264C29.873 34.3258 29.4413 34.1194 29.2235 33.8897C28.9014 33.5503 28.8664 33.3939 28.8336 32.1481C28.8001 30.8787 28.78 30.8085 28.3942 30.6117C28.1318 30.4778 27.9448 30.4797 27.6633 30.6191Z" fill="#2C2B46"/>
<path fill-rule="evenodd" clip-rule="evenodd" d="M14.3679 15.0368C14.2103 15.075 13.8741 15.2089 13.6207 15.3344C12.8167 15.7328 12.2081 16.446 11.8755 17.3793L11.7509 17.729L11.7345 22.1207C11.7161 27.0631 11.7089 26.9534 12.1061 27.7627C12.5236 28.6134 13.3659 29.306 14.3047 29.5705C14.4799 29.6199 14.935 29.6661 15.421 29.6839L16.2415 29.7139L16.2423 28.5366C16.2432 27.1955 16.2907 26.8973 16.6057 26.2563C16.896 25.6655 17.5137 25.0556 18.1245 24.7566C18.9382 24.3583 18.6118 24.3752 25.495 24.3752C32.3782 24.3752 32.0519 24.3583 32.8656 24.7566C33.4763 25.0556 34.0941 25.6655 34.3844 26.2563C34.6994 26.8973 34.7469 27.1955 34.7478 28.5366L34.7486 29.7139L35.569 29.6839C36.0551 29.6661 36.5101 29.6199 36.6854 29.5705C37.6242 29.306 38.4664 28.6134 38.884 27.7627C39.2812 26.9534 39.274 27.0631 39.2555 22.1207L39.2392 17.729L39.1146 17.3793C38.7722 16.4187 38.1662 15.721 37.3221 15.316C37.0459 15.1834 36.6916 15.0488 36.5348 15.0167C36.087 14.925 14.7496 14.9445 14.3679 15.0368ZM31.3387 18.1628C31.7229 18.45 31.8301 18.8644 31.6162 19.2354C31.4094 19.5942 31.2425 19.6453 30.337 19.6274C29.6549 19.614 29.539 19.5985 29.4141 19.5044C29.032 19.2165 28.9699 18.7032 29.2707 18.3207C29.4719 18.0649 29.6449 18.0236 30.4544 18.0384C31.1014 18.0502 31.2083 18.0652 31.3387 18.1628ZM35.1779 18.1192C35.2809 18.1709 35.4222 18.298 35.4921 18.4015C35.6651 18.6583 35.641 19.1371 35.4446 19.3474C35.2011 19.6081 35.0774 19.6389 34.2751 19.6389C33.587 19.6389 33.5125 19.6291 33.3443 19.5168C32.8283 19.1721 32.8737 18.4071 33.4264 18.1335C33.7293 17.9837 34.8892 17.9741 35.1779 18.1192ZM19.314 26.0455C18.7882 26.1488 18.2291 26.5933 18.0064 27.0852C17.8912 27.3396 17.8811 27.443 17.8651 28.5293L17.8479 29.6995H25.495H33.1421L33.1249 28.5293C33.1089 27.443 33.0988 27.3396 32.9837 27.0852C32.8418 26.7719 32.4551 26.3706 32.138 26.2079C32.019 26.1468 31.7918 26.0721 31.633 26.042C31.276 25.9743 19.6597 25.9776 19.314 26.0455Z" fill="#2C2B46"/>
</svg>
