<svg width="33" height="33" viewBox="0 0 33 33" fill="none" xmlns="http://www.w3.org/2000/svg">
<path opacity="0.4" fill-rule="evenodd" clip-rule="evenodd" d="M4.44967 0.102983C4.12726 0.266415 3.93262 0.588376 3.93262 0.958387C3.93262 1.3284 4.12726 1.65036 4.44967 1.81379C4.65636 1.9186 4.92346 1.92621 7.8445 1.91053C10.9324 1.89402 11.0196 1.89009 11.1929 1.76058C11.5125 1.52182 11.6293 1.30711 11.6293 0.958387C11.6293 0.60966 11.5125 0.394955 11.1929 0.156192C11.0196 0.0266852 10.9324 0.022751 7.8445 0.00624014C4.92346 -0.00943227 4.65636 -0.0018218 4.44967 0.102983ZM29.6572 0.100275C29.5338 0.164319 29.367 0.315303 29.2865 0.435845C29.1591 0.626622 29.1402 0.737168 29.1402 1.29041V1.92582L28.5438 1.92595C27.8523 1.92601 27.5819 2.02695 27.3524 2.37071C27.0457 2.82998 27.2254 3.49758 27.7231 3.74769C27.8883 3.83076 28.1048 3.86049 28.5438 3.86056L29.1402 3.86068V4.49609C29.1402 5.04934 29.1591 5.15988 29.2865 5.35066C29.6789 5.93828 30.4573 5.92461 30.9069 5.32222C31.0121 5.18117 31.0426 5.02283 31.0631 4.5097L31.0887 3.87229L31.7216 3.85037C32.2381 3.8325 32.3873 3.80399 32.5324 3.69545C32.8519 3.45656 32.9687 3.24191 32.9687 2.89325C32.9687 2.54459 32.8519 2.32995 32.5324 2.09106C32.3873 1.98251 32.2381 1.954 31.7216 1.93614L31.0887 1.91421L31.0631 1.2768C31.0358 0.595729 30.9699 0.433845 30.6102 0.165222C30.3717 -0.012915 29.9331 -0.0427764 29.6572 0.100275ZM0.517035 3.97271C0.194623 4.13614 0 4.45811 0 4.82812C0 5.19813 0.194623 5.52009 0.517035 5.68352C0.723788 5.78833 0.992366 5.79594 3.9441 5.78026C7.06455 5.76375 7.15132 5.75988 7.32474 5.63031C7.64432 5.39155 7.76114 5.17684 7.76114 4.82812C7.76114 4.47939 7.64432 4.26468 7.32474 4.02592C7.15132 3.89635 7.06455 3.89248 3.9441 3.87597C0.992366 3.8603 0.723788 3.86791 0.517035 3.97271ZM23.7905 27.3174C23.6671 27.3814 23.5003 27.5324 23.4198 27.6529C23.2924 27.8437 23.2734 27.9543 23.2734 28.5075V29.1429L22.6771 29.143C21.9856 29.1431 21.7152 29.244 21.4857 29.5878C21.179 30.0471 21.3587 30.7147 21.8564 30.9648C22.0216 31.0479 22.2381 31.0776 22.6771 31.0777L23.2734 31.0778V31.7132C23.2734 32.2664 23.2924 32.377 23.4198 32.5678C23.8122 33.1554 24.5906 33.1417 25.0402 32.5393C25.1454 32.3983 25.1759 32.2399 25.1964 31.7268L25.222 31.0894L25.8549 31.0675C26.3714 31.0496 26.5206 31.0211 26.6657 30.9125C26.9852 30.6737 27.102 30.459 27.102 30.1104C27.102 29.7617 26.9852 29.547 26.6657 29.3082C26.5206 29.1996 26.3714 29.1711 25.8549 29.1532L25.222 29.1313L25.1964 28.4939C25.1691 27.8128 25.1031 27.6509 24.7435 27.3823C24.505 27.2042 24.0664 27.1743 23.7905 27.3174Z" fill="#2C2B46"/>
<path fill-rule="evenodd" clip-rule="evenodd" d="M16.923 1.52012C16.0867 1.63331 14.9254 2.0851 14.1671 2.59242C13.3739 3.12296 9.97808 6.55702 9.63858 7.17173C9.2408 7.89221 9.08028 8.48641 9.0434 9.37535L9.01123 10.1493L11.71 7.46912C14.5688 4.63003 14.681 4.53657 15.5325 4.28633C15.9873 4.15276 16.8918 4.15276 17.3465 4.28633C18.2621 4.55541 19.0504 5.21577 19.4591 6.05589L19.6959 6.54271L20.1468 6.3865C20.7875 6.16457 21.641 6.16592 22.2806 6.38992C24.222 7.06976 25.0964 9.09073 24.2838 11.02C24.2534 11.0922 24.3697 11.1766 24.7413 11.3525C26.3728 12.1245 27.0705 14.0652 26.3401 15.7999C26.3058 15.8815 26.4039 15.955 26.7933 16.1401C27.3965 16.4266 28.049 17.0561 28.3175 17.6103C28.824 18.6561 28.8133 19.776 28.2868 20.7858C28.1231 21.0999 27.6807 21.5831 26.0646 23.2127C24.9549 24.3318 24.0469 25.2716 24.0469 25.3011C24.0469 25.3306 24.4313 25.3408 24.9011 25.3236C25.6047 25.2979 25.8463 25.2617 26.2711 25.118C27.2566 24.7847 27.535 24.5696 29.4835 22.6359C31.4101 20.7239 31.7565 20.3195 32.1959 19.4689C33.1297 17.661 33.1937 15.3891 32.3626 13.5553C31.8546 12.4346 31.8498 12.4292 26.9866 7.5489C21.9956 2.54037 21.9237 2.47646 20.7236 1.9861C19.8224 1.61783 19.0268 1.47252 17.9767 1.48432C17.5035 1.48961 17.0294 1.50574 16.923 1.52012ZM15.8195 6.2339C15.709 6.29446 13.388 8.55767 10.6619 11.2632C5.93139 15.958 5.7033 16.1742 5.66082 16.0036C5.63632 15.9053 5.54258 14.4898 5.45258 12.8581L5.28896 9.89131L5.07808 9.47454C4.47032 8.27305 2.85659 8.04306 1.96466 9.03075C1.57333 9.46409 1.49667 9.71911 1.38468 10.961C1.19727 13.0387 1.07265 14.068 0.546259 17.8888C0.0469435 21.5128 0.0363777 21.6263 0.0341213 23.4031C0.0323806 24.7728 0.052429 25.1448 0.153775 25.6282C0.519188 27.3712 1.30249 28.7646 2.70347 30.1637C4.06462 31.523 5.72263 32.412 7.67167 32.8277C8.55819 33.0167 10.3499 33.0358 11.2642 32.866C12.5562 32.626 13.8628 32.0964 14.9842 31.3582C15.5725 30.9708 16.1451 30.4199 21.0646 25.5079C24.2255 22.3518 26.5416 19.9901 26.6054 19.8577C26.6659 19.7326 26.7266 19.456 26.7406 19.2432C26.7916 18.4644 26.2204 17.8063 25.4374 17.7413C24.7827 17.687 24.7782 17.6904 22.4674 19.9873C20.1811 22.2599 20.1883 22.2543 19.6373 22.1509C19.0251 22.0361 18.7141 21.3482 19.0139 20.7723C19.0824 20.6408 20.3329 19.3431 21.7927 17.8888C23.5566 16.1314 24.4875 15.1579 24.5678 14.9865C24.8148 14.4596 24.6791 13.718 24.2646 13.3291C23.8768 12.9653 23.2064 12.8471 22.7071 13.0544C22.544 13.1221 21.5815 14.0377 19.6952 15.9194C17.2714 18.3374 16.8927 18.6906 16.6813 18.7294C15.9198 18.8693 15.363 18.3124 15.5023 17.5501C15.5412 17.3375 15.9622 16.8911 18.9842 13.8578C20.875 11.96 22.4642 10.3202 22.516 10.2138C22.6651 9.90743 22.6962 9.62275 22.6203 9.26022C22.5624 8.98367 22.4897 8.865 22.2113 8.5925C21.714 8.10595 21.1591 8.01275 20.5656 8.31614C20.4415 8.3796 18.8458 9.93007 17.0197 11.7617C15.1936 13.5933 13.5919 15.148 13.4604 15.2165C12.8847 15.5165 12.1972 15.2054 12.0824 14.593C11.9767 14.0296 11.9156 14.1052 14.8944 11.1167C16.7755 9.22965 17.6907 8.2668 17.7584 8.10363C18.0563 7.3856 17.7074 6.51168 17.0057 6.21849C16.6873 6.08543 16.0759 6.09337 15.8195 6.2339Z" fill="#2C2B46"/>
</svg>
