<svg width="33" height="29" viewBox="0 0 33 29" fill="none" xmlns="http://www.w3.org/2000/svg">
<path fill-rule="evenodd" clip-rule="evenodd" d="M15.2082 0.109796C15.0895 0.168311 14.9262 0.319946 14.8453 0.446706C14.7644 0.573466 12.7503 4.9125 10.3695 10.089L6.04083 19.5008L5.57903 19.4197C4.03868 19.1492 2.52958 19.6434 1.39351 20.7902C0.710689 21.4795 0.293201 22.2604 0.0978874 23.2135C-0.531792 26.2862 1.96341 29.172 5.08379 28.9799C6.31583 28.9041 7.31449 28.4488 8.21479 27.5526C8.71009 27.0596 8.84614 26.876 9.10014 26.3578C9.75674 25.0185 9.81891 23.9488 9.32354 22.5151L9.1203 21.9268L13.12 13.1386C15.3199 8.30512 17.1718 4.17643 17.2355 3.96377C17.4169 3.35742 17.3922 2.35346 17.1812 1.758C16.6976 0.393218 15.9316 -0.246704 15.2082 0.109796ZM23.7157 0.10767C23.3806 0.272902 23.2185 0.553102 23.2185 0.967151C23.2185 1.2306 23.2555 1.37334 23.3622 1.5231C23.6371 1.9086 23.772 1.9338 25.5634 1.9338H27.1802V2.90045V3.8671H25.5634C23.772 3.8671 23.6371 3.8923 23.3622 4.2778C23.1617 4.55903 23.1617 5.10847 23.3622 5.38971C23.6371 5.77521 23.772 5.8004 25.5634 5.8004H27.1802V6.76705V7.7337H25.5634C23.772 7.7337 23.6371 7.7589 23.3622 8.1444C23.1617 8.42563 23.1617 8.97508 23.3622 9.25631C23.6371 9.64181 23.772 9.667 25.5634 9.667H27.1802V10.6337V11.6003H25.5634C23.772 11.6003 23.6371 11.6255 23.3622 12.011C23.2555 12.1608 23.2185 12.3035 23.2185 12.567C23.2185 12.8304 23.2555 12.9731 23.3622 13.1229C23.6371 13.5084 23.772 13.5336 25.5634 13.5336H27.1802V14.5003V15.4669H25.5634C23.772 15.4669 23.6371 15.4921 23.3622 15.8776C23.1617 16.1588 23.1617 16.7083 23.3622 16.9895C23.6371 17.375 23.772 17.4002 25.5634 17.4002H27.1802V18.3669V19.3335H25.5634C23.772 19.3335 23.6371 19.3587 23.3622 19.7442C23.1617 20.0254 23.1617 20.5749 23.3622 20.8561C23.6371 21.2416 23.772 21.2668 25.5634 21.2668H27.1802V22.2335V23.2001H25.5634C23.772 23.2001 23.6371 23.2253 23.3622 23.6108C23.1617 23.892 23.1617 24.4415 23.3622 24.7227C23.6371 25.1082 23.772 25.1334 25.5634 25.1334H27.1802V26.1001V27.0667H25.5634C23.772 27.0667 23.6371 27.0919 23.3622 27.4774C23.1617 27.7586 23.1617 28.3081 23.3622 28.5893C23.6584 29.0048 23.6152 29 27.1006 29C28.9765 29 30.3951 28.9733 30.6013 28.9342C31.7688 28.7127 32.7247 27.7385 32.9149 26.5761C32.9989 26.0631 32.9989 2.93744 32.9149 2.42441C32.7247 1.26204 31.7688 0.287789 30.6013 0.0662972C30.3943 0.0269868 28.9801 0.00108059 27.0909 0.00198279C24.3085 0.00327166 23.9016 0.0160313 23.7157 0.10767ZM5.34976 21.3326C6.8588 21.6189 7.90423 23.0872 7.67014 24.5914C7.42677 26.1556 5.92759 27.2682 4.40367 27.0155C3.23166 26.8212 2.31429 25.987 2.03131 24.8582C1.90164 24.3408 1.90164 23.9927 2.03131 23.4753C2.40254 21.9946 3.86417 21.0507 5.34976 21.3326Z" fill="#2C2B46"/>
<path opacity="0.4" fill-rule="evenodd" clip-rule="evenodd" d="M12.7311 18.6605C12.175 19.8861 11.7201 20.9277 11.7201 20.9752C11.7201 21.0226 11.8071 21.2453 11.9133 21.47C12.0196 21.6947 12.1065 21.9098 12.1065 21.9481C12.1066 21.9862 12.0335 22.1973 11.9443 22.4171C11.2283 24.1799 11.6351 26.1763 12.9887 27.5429C13.9908 28.5545 15.3003 29.0643 16.6789 28.9795C17.911 28.9036 18.9096 28.4484 19.8099 27.5522C20.3049 27.0595 20.4416 26.8752 20.6956 26.3574C21.112 25.5089 21.218 25.0645 21.218 24.1663C21.218 23.2682 21.112 22.8238 20.6956 21.9753C20.4416 21.4575 20.3049 21.2732 19.8099 20.7805C19.169 20.1424 18.5814 19.7869 17.7435 19.5301C17.1433 19.3462 16.2636 19.2969 15.6691 19.414L15.2054 19.5053L14.5198 18.0175C14.1427 17.1993 13.8135 16.5079 13.7881 16.4811C13.7628 16.4543 13.2871 17.435 12.7311 18.6605ZM16.9449 21.3322C18.454 21.6184 19.4994 23.0868 19.2653 24.591C19.0716 25.8359 18.1027 26.8068 16.8463 27.0151C15.7198 27.2018 14.4609 26.5852 13.8976 25.5707C13.6972 25.2098 13.5238 24.5583 13.5238 24.1663C13.5238 24.0113 13.57 23.7002 13.6265 23.4749C13.9977 21.9941 15.4593 21.0503 16.9449 21.3322Z" fill="#2C2B46"/>
<path opacity="0.4" fill-rule="evenodd" clip-rule="evenodd" d="M5.17869 0.129145C4.51442 0.458128 3.86786 1.83728 3.86457 2.93211C3.86225 3.7265 3.98922 4.06419 5.73744 7.91442C6.66576 9.95908 7.44231 11.6518 7.46312 11.676C7.49294 11.7109 9.33566 7.78373 9.50295 7.32869C9.53078 7.25297 9.02614 6.08577 8.01234 3.88097C7.16931 2.04769 6.42709 0.471274 6.363 0.377831C6.24073 0.199774 5.82814 -0.000128824 5.5831 6.22916e-08C5.50406 6.22916e-08 5.32208 0.0581281 5.17869 0.129145Z" fill="#2C2B46"/>
</svg>
