<svg width="20" height="20" viewBox="0 0 20 20" fill="none" xmlns="http://www.w3.org/2000/svg">
<path fill-rule="evenodd" clip-rule="evenodd" d="M4.16666 1.66675C2.78594 1.66675 1.66666 2.78604 1.66666 4.16675V15.8334C1.66666 17.2141 2.78594 18.3334 4.16666 18.3334H15.8333C17.214 18.3334 18.3333 17.2141 18.3333 15.8334V4.16675C18.3333 2.78604 17.214 1.66675 15.8333 1.66675H4.16666ZM11.6667 3.33341H8.33332V6.66675H11.6667V3.33341ZM13.3333 3.33341V6.66675H16.6667V4.16675C16.6667 3.70651 16.2936 3.33341 15.8333 3.33341H13.3333ZM11.6667 8.33342H8.33332V11.6667H11.6667V8.33342ZM13.3333 11.6667V8.33342H16.6667V11.6667H13.3333ZM11.6667 13.3334H8.33332V16.6667H11.6667V13.3334ZM13.3333 16.6667V13.3334H16.6667V15.8334C16.6667 16.2937 16.2936 16.6667 15.8333 16.6667H13.3333ZM4.16666 3.33341H6.66666V6.66675H3.33332V4.16675C3.33332 3.70651 3.70642 3.33341 4.16666 3.33341ZM3.33332 8.33342H6.66666V11.6667H3.33332V8.33342ZM3.33332 13.3334H6.66666V16.6667H4.16666C3.70642 16.6667 3.33332 16.2937 3.33332 15.8334V13.3334Z" fill="#9A9FA5"/>
</svg>
