<svg width="20" height="20" viewBox="0 0 20 20" fill="none" xmlns="http://www.w3.org/2000/svg">
<path d="M11.6844 2.49996H13.75C14.2102 2.49996 14.5833 2.87306 14.5833 3.33329C14.5833 3.79353 14.2102 4.16663 13.75 4.16663H12.3173L9.40064 15.8333H10.8333C11.2936 15.8333 11.6667 16.2064 11.6667 16.6666C11.6667 17.1269 11.2936 17.5 10.8333 17.5H8.35172C8.33991 17.5002 8.32806 17.5002 8.31619 17.5H6.25C5.78976 17.5 5.41666 17.1269 5.41666 16.6666C5.41666 16.2064 5.78976 15.8333 6.25 15.8333H7.68268L10.5993 4.16663H9.16666C8.70643 4.16663 8.33333 3.79353 8.33333 3.33329C8.33333 2.87306 8.70643 2.49996 9.16666 2.49996H11.6477C11.6599 2.49969 11.6721 2.49969 11.6844 2.49996Z" fill="#393F33"/>
</svg>
