<svg width="20" height="20" viewBox="0 0 20 20" fill="none" xmlns="http://www.w3.org/2000/svg">
<path fill-rule="evenodd" clip-rule="evenodd" d="M5.83334 5.83333C5.83334 5.3731 6.20644 5 6.66668 5H16.6667C17.1269 5 17.5 5.3731 17.5 5.83333C17.5 6.29357 17.1269 6.66667 16.6667 6.66667H6.66668C6.20644 6.66667 5.83334 6.29357 5.83334 5.83333Z" fill="#6759FF"/>
<path fill-rule="evenodd" clip-rule="evenodd" d="M5.83334 10.0001C5.83334 9.53984 6.20644 9.16675 6.66668 9.16675H16.6667C17.1269 9.16675 17.5 9.53984 17.5 10.0001C17.5 10.4603 17.1269 10.8334 16.6667 10.8334H6.66668C6.20644 10.8334 5.83334 10.4603 5.83334 10.0001Z" fill="#6759FF"/>
<path fill-rule="evenodd" clip-rule="evenodd" d="M5.83334 14.1666C5.83334 13.7063 6.20644 13.3333 6.66668 13.3333H16.6667C17.1269 13.3333 17.5 13.7063 17.5 14.1666C17.5 14.6268 17.1269 14.9999 16.6667 14.9999H6.66668C6.20644 14.9999 5.83334 14.6268 5.83334 14.1666Z" fill="#6759FF"/>
<path d="M4.16667 5.83333C4.16667 6.29357 3.79357 6.66667 3.33333 6.66667C2.8731 6.66667 2.5 6.29357 2.5 5.83333C2.5 5.3731 2.8731 5 3.33333 5C3.79357 5 4.16667 5.3731 4.16667 5.83333Z" fill="#6759FF"/>
<path d="M4.16667 10.0001C4.16667 10.4603 3.79357 10.8334 3.33333 10.8334C2.8731 10.8334 2.5 10.4603 2.5 10.0001C2.5 9.53984 2.8731 9.16675 3.33333 9.16675C3.79357 9.16675 4.16667 9.53984 4.16667 10.0001Z" fill="#6759FF"/>
<path d="M4.16667 14.1666C4.16667 14.6268 3.79357 14.9999 3.33333 14.9999C2.8731 14.9999 2.5 14.6268 2.5 14.1666C2.5 13.7063 2.8731 13.3333 3.33333 13.3333C3.79357 13.3333 4.16667 13.7063 4.16667 14.1666Z" fill="#6759FF"/>
</svg>
