<svg width="20" height="20" viewBox="0 0 20 20" fill="none" xmlns="http://www.w3.org/2000/svg">
<path d="M6.66668 9.99992C6.66668 10.9204 5.92048 11.6666 5.00001 11.6666C4.07954 11.6666 3.33334 10.9204 3.33334 9.99992C3.33334 9.07944 4.07954 8.33325 5.00001 8.33325C5.92048 8.33325 6.66668 9.07944 6.66668 9.99992Z" fill="#6F767E"/>
<path d="M11.6667 9.99992C11.6667 10.9204 10.9205 11.6666 10 11.6666C9.07954 11.6666 8.33334 10.9204 8.33334 9.99992C8.33334 9.07944 9.07954 8.33325 10 8.33325C10.9205 8.33325 11.6667 9.07944 11.6667 9.99992Z" fill="#6F767E"/>
<path d="M16.6667 9.99992C16.6667 10.9204 15.9205 11.6666 15 11.6666C14.0795 11.6666 13.3333 10.9204 13.3333 9.99992C13.3333 9.07944 14.0795 8.33325 15 8.33325C15.9205 8.33325 16.6667 9.07944 16.6667 9.99992Z" fill="#6F767E"/>
</svg>
