<svg width="20" height="20" viewBox="0 0 20 20" fill="none" xmlns="http://www.w3.org/2000/svg">
<path fill-rule="evenodd" clip-rule="evenodd" d="M4.16667 17.5001C4.16667 17.0398 4.53976 16.6667 5 16.6667H15C15.4602 16.6667 15.8333 17.0398 15.8333 17.5001C15.8333 17.9603 15.4602 18.3334 15 18.3334H5C4.53976 18.3334 4.16667 17.9603 4.16667 17.5001Z" fill="#393F33"/>
<path fill-rule="evenodd" clip-rule="evenodd" d="M5 1.66675C5.46024 1.66675 5.83333 2.03984 5.83333 2.50008V9.16675C5.83333 11.4679 7.69882 13.3334 10 13.3334C12.3012 13.3334 14.1667 11.4679 14.1667 9.16675V2.50008C14.1667 2.03984 14.5398 1.66675 15 1.66675C15.4602 1.66675 15.8333 2.03984 15.8333 2.50008V9.16675C15.8333 12.3884 13.2217 15.0001 10 15.0001C6.77834 15.0001 4.16667 12.3884 4.16667 9.16675V2.50008C4.16667 2.03984 4.53976 1.66675 5 1.66675Z" fill="#393F33"/>
</svg>
