<svg width="26" height="26" viewBox="0 0 26 26" fill="none" xmlns="http://www.w3.org/2000/svg">
<path fill-rule="evenodd" clip-rule="evenodd" d="M9.22797 2.1667C9.21415 2.16644 9.20037 2.16644 9.18663 2.1667H7.09823C5.75788 2.1667 4.55502 2.98954 4.06921 4.23875L2.13227 9.21945C1.66169 10.4295 2.17871 11.7566 3.25 12.3632V20.5833C3.25 22.3783 4.70508 23.8333 6.5 23.8333H19.5C21.2949 23.8333 22.75 22.3783 22.75 20.5833V12.3632C23.8213 11.7566 24.3383 10.4295 23.8677 9.21945L21.9308 4.23875C21.445 2.98954 20.2421 2.1667 18.9018 2.1667H16.8134C16.7997 2.16644 16.7859 2.16644 16.7721 2.1667H9.22797ZM20.5833 12.7167C20.0974 12.6598 19.6212 12.519 19.1767 12.2967L18.4172 11.917L18.4161 11.917L17.72 12.1954C16.4286 12.7119 14.988 12.7119 13.6966 12.1954L13 11.9167L12.3034 12.1954C11.012 12.7119 9.57137 12.7119 8.27998 12.1954L7.58397 11.917L7.58284 11.917L6.82331 12.2967C6.37882 12.519 5.90258 12.6598 5.41667 12.7167V20.5833C5.41667 21.1817 5.90169 21.6667 6.5 21.6667H8.66667V18.4167C8.66667 16.6218 10.1217 15.1667 11.9167 15.1667H14.0833C15.8783 15.1667 17.3333 16.6218 17.3333 18.4167V21.6667H19.5C20.0983 21.6667 20.5833 21.1817 20.5833 20.5833V12.7167ZM19.3856 9.97878C19.3693 9.97061 19.3529 9.96265 19.3364 9.95492L18.1318 4.33337H18.9018C19.3486 4.33337 19.7495 4.60765 19.9115 5.02405L21.8484 10.0048C21.9322 10.2203 21.8079 10.4605 21.5836 10.5166C21.1008 10.6373 20.5908 10.5813 20.1457 10.3588L19.3856 9.97878ZM17.1495 10.09L15.9159 4.33337H14.0833V10.0165L14.5013 10.1837C15.2762 10.4936 16.1405 10.4936 16.9154 10.1837L17.1495 10.09ZM11.9167 4.33337H10.0842L8.85058 10.09L9.08465 10.1837C9.85949 10.4936 10.7239 10.4936 11.4987 10.1837L11.9167 10.0165V4.33337ZM6.66369 9.9549L7.8683 4.33337H7.09823C6.65144 4.33337 6.25049 4.60765 6.08856 5.02405L4.15162 10.0048C4.06779 10.2203 4.19207 10.4605 4.41646 10.5166C4.89923 10.6373 5.40925 10.5813 5.85435 10.3588L6.61438 9.97878C6.63074 9.9706 6.64717 9.96264 6.66369 9.9549ZM15.1667 18.4167V21.6667H10.8333V18.4167C10.8333 17.8184 11.3184 17.3334 11.9167 17.3334H14.0833C14.6816 17.3334 15.1667 17.8184 15.1667 18.4167Z" fill="#D1D3D4"/>
</svg>
