<svg width="80" height="95" viewBox="0 0 80 95" fill="none" xmlns="http://www.w3.org/2000/svg">
<path d="M54.7501 16.7251C50.4159 12.9887 44.9359 10.5476 38.9078 9.99961" stroke="#6759FF" stroke-width="3" stroke-miterlimit="10" stroke-linecap="round" stroke-linejoin="round"/>
<path d="M14.1484 68.312C10.2127 68.312 7.02435 71.5004 7.02435 75.436V81.9622H1.24543V75.436C1.24543 71.8491 3.91071 68.86 7.34817 68.3867C7.67199 68.3369 8.02072 68.312 8.36944 68.312H14.1484Z" fill="#E5E2FF" fill-opacity="0.5"/>
<path d="M38.908 10.0244C24.4607 11.3446 13.152 23.4754 13.152 38.2714V68.3367H8.3694C8.02068 68.3367 7.67195 68.3616 7.34813 68.4114V38.2714C7.34813 22.6035 20.0518 9.92479 35.6947 9.92479H36.2676C37.1644 9.89989 38.0362 9.92479 38.908 10.0244Z" fill="#E5E2FF" fill-opacity="0.5"/>
<path d="M7.02435 81.9867H1.24543V75.4605C1.24543 71.8736 3.91071 68.8845 7.34817 68.4112C7.67199 68.3614 8.02072 68.3365 8.36944 68.3365H14.1484" stroke="#6759FF" stroke-width="2.48198" stroke-miterlimit="10" stroke-linecap="round" stroke-linejoin="round"/>
<path d="M70.4433 43.2215V68.3123" stroke="#6759FF" stroke-width="3" stroke-miterlimit="10" stroke-linecap="round" stroke-linejoin="round"/>
<path d="M13.152 68.3115H8.3694C8.02068 68.3115 7.67195 68.3364 7.34813 68.3863V38.2462C7.34813 22.5784 20.0518 9.89964 35.6947 9.89964H36.2676C37.1394 9.89964 38.0113 9.94946 38.8831 10.0242" stroke="#6759FF" stroke-width="3" stroke-miterlimit="10" stroke-linecap="round" stroke-linejoin="round"/>
<path d="M14.1485 68.312H69.3969C73.3326 68.312 76.5209 71.5004 76.5209 75.436V81.9622H7.02446" stroke="#6759FF" stroke-width="3" stroke-miterlimit="10" stroke-linecap="round" stroke-linejoin="round"/>
<path d="M32.9296 9.89977V4.54431C32.9296 2.8754 34.2996 1.5054 35.9685 1.5054H36.0184C37.6873 1.5054 39.0573 2.8754 39.0573 4.54431V9.89977" stroke="#6759FF" stroke-width="3" stroke-miterlimit="10" stroke-linecap="round" stroke-linejoin="round"/>
<path d="M45.4348 84.054C45.4348 89.26 41.2003 93.4945 35.9943 93.4945C30.7883 93.4945 26.5537 89.26 26.5537 84.054C26.5537 83.3316 26.6285 82.6591 26.7779 81.9865H45.2107C45.3601 82.6342 45.4348 83.3316 45.4348 84.054Z" stroke="#6759FF" stroke-width="3" stroke-miterlimit="10" stroke-linecap="round" stroke-linejoin="round"/>
<path d="M14.0737 42.4306V58.2479" stroke="#6759FF" stroke-width="3" stroke-miterlimit="10" stroke-linecap="round" stroke-linejoin="round"/>
<path d="M14.0737 35.4066V37.1005" stroke="#6759FF" stroke-width="3" stroke-miterlimit="10" stroke-linecap="round" stroke-linejoin="round"/>
<path d="M57.3164 29.752C57.3413 27.9088 57.5157 26.2897 58.1882 24.7453C58.8109 23.3255 59.7326 22.1548 61.2271 21.5818C63.6184 20.6602 66.5079 21.2331 68.0522 24.0229C68.6999 25.1937 69.0237 26.464 69.1731 27.7842C69.3226 28.9799 69.3226 30.1755 69.1731 31.3462C68.9739 32.9653 68.5504 34.5097 67.5291 35.8299C66.3584 37.3493 64.7891 37.997 62.896 37.8724C60.6791 37.723 59.2344 36.4775 58.3128 34.5595C57.7648 33.4635 57.5157 32.2928 57.416 31.0722C57.3662 30.5989 57.3413 30.0759 57.3164 29.752ZM59.7326 29.5528C59.7575 30.6986 59.8322 31.8693 60.1809 32.9653C60.43 33.7624 60.8286 34.5097 61.4762 35.0577C62.5971 36.0042 64.6895 35.9793 65.7606 34.3602C66.458 33.314 66.732 32.1184 66.8317 30.8979C66.9313 29.752 66.9313 28.6062 66.732 27.4604C66.5826 26.464 66.3086 25.5175 65.7108 24.6955C64.814 23.4251 63.1451 23.0266 61.8249 23.7988C61.0279 24.272 60.5546 25.0193 60.2557 25.8662C59.8322 27.0618 59.7326 28.3073 59.7326 29.5528Z" fill="#1AE5BE"/>
<path d="M49.8187 36.2533C48.7227 34.1609 48.1 31.7696 48.1 29.2289C48.1 20.9093 54.8504 14.1838 63.1451 14.1838C71.4398 14.1838 78.1902 20.9342 78.1902 29.2289C78.1902 37.5236 71.4398 44.274 63.1451 44.274C60.2556 44.274 57.5655 43.452 55.2489 42.0571" stroke="#1AE5BE" stroke-width="3" stroke-miterlimit="10" stroke-linecap="round" stroke-linejoin="round"/>
</svg>
