<svg width="30" height="29" viewBox="0 0 30 29" fill="none" xmlns="http://www.w3.org/2000/svg">
<path opacity="0.4" fill-rule="evenodd" clip-rule="evenodd" d="M25.9798 1.53372L23.7083 2.28769V7.12969V11.9717L25.9746 12.7251C27.9053 13.3669 28.2787 13.4743 28.4956 13.4498C28.7976 13.4157 29.0008 13.2775 29.1456 13.0076C29.2465 12.8194 29.2514 12.5489 29.2514 7.11763V1.42503L29.1228 1.23611C29.0521 1.13222 28.9277 0.99793 28.8464 0.937756C28.53 0.703462 28.3992 0.730663 25.9798 1.53372Z" fill="#2C2B46"/>
<path fill-rule="evenodd" clip-rule="evenodd" d="M6.05536 0.0674224C5.45414 0.172683 4.53229 0.47858 3.98347 0.75499C2.64696 1.42799 1.37789 2.69323 0.720892 4.00762C-0.61127 6.67286 -0.0608479 9.97526 2.07203 12.1147C3.3487 13.3953 4.94733 14.13 6.74837 14.2638C7.77549 14.3401 7.13534 14.4391 17.9931 12.5251C20.0517 12.1621 21.7939 11.8518 21.8647 11.8354L21.9932 11.8057V7.12093C21.9932 4.54427 21.9728 2.43613 21.9479 2.43613C21.923 2.43613 18.8436 1.89389 15.1048 1.23118C8.54534 0.0685081 8.27601 0.0254781 7.4213 0.00479162C6.80893 -0.0100661 6.38731 0.00930607 6.05536 0.0674224ZM7.79651 4.49792C8.29212 4.58815 8.82849 4.87239 9.19244 5.23772C10.2518 6.3009 10.254 7.95576 9.19737 9.01237C8.13476 10.075 6.47926 10.075 5.41665 9.01237C4.73874 8.33446 4.48719 7.44048 4.70926 6.49839C4.93887 5.5243 5.74507 4.73542 6.73556 4.51552C7.14026 4.42569 7.37815 4.42175 7.79651 4.49792ZM6.99865 6.20987C6.78442 6.27399 6.51389 6.53 6.41423 6.76303C6.15416 7.37082 6.63059 8.08999 7.29501 8.09257C7.91349 8.09491 8.36916 7.53769 8.25339 6.92064C8.20247 6.6492 7.86675 6.28284 7.60142 6.20913C7.35804 6.14152 7.22649 6.1417 6.99865 6.20987ZM9.99282 15.6616L6.99271 16.189L7.011 16.3271C7.10718 17.0547 8.02435 22.1343 8.09995 22.3584C8.25098 22.8058 8.55779 23.2734 8.92329 23.6131C9.28507 23.9492 9.93578 24.294 10.3263 24.3563C10.604 24.4007 10.5966 24.3889 10.79 25.0941C11.2114 26.6307 12.4338 28.0013 13.923 28.6071C14.6865 28.9176 15.0312 28.978 16.0216 28.9744C16.8444 28.9714 16.9862 28.9558 17.4378 28.8181C19.3589 28.2324 20.7242 26.8185 21.2597 24.8602C21.3721 24.449 21.3863 24.2209 21.4168 22.3226C21.45 20.2621 21.452 20.2341 21.5844 20.0213C21.7619 19.7358 22.0209 19.5452 22.3514 19.4568C22.8377 19.3267 23.3705 19.5567 23.6593 20.0213L23.7933 20.2368L23.8219 24.3557L23.8505 28.4747L24.007 28.6798C24.1912 28.9212 24.4834 29.0345 24.8093 28.9907C25.0912 28.953 25.2902 28.8119 25.4304 28.5504C25.5305 28.3637 25.5362 28.1366 25.5362 24.3406C25.5362 21.632 25.5157 20.2297 25.4731 20.0253C25.3602 19.4842 25.0949 19.0134 24.6557 18.575C23.9157 17.8363 22.9695 17.5529 22.0033 17.7807C21.0082 18.0153 20.2223 18.7109 19.8642 19.674C19.7477 19.9874 19.7379 20.1393 19.7056 22.1225C19.6732 24.1139 19.6636 24.2602 19.5414 24.6369C19.1573 25.8208 18.2833 26.7112 17.0945 27.1298C16.5756 27.3125 15.7349 27.3382 15.146 27.1892C13.801 26.8491 12.8142 25.9136 12.4279 24.6122C12.3008 24.184 12.3046 24.1694 12.5786 24.0299C12.7122 23.9618 13.0039 23.7235 13.2268 23.5001C13.7136 23.0123 13.967 22.5241 14.0854 21.846C14.184 21.2813 14.1966 21.3826 13.592 17.8799C13.341 16.4266 13.1358 15.2116 13.1358 15.1798C13.1358 15.1037 13.3847 15.0655 9.99282 15.6616Z" fill="#2C2B46"/>
</svg>
