<svg width="29" height="33" viewBox="0 0 29 33" fill="none" xmlns="http://www.w3.org/2000/svg">
<path fill-rule="evenodd" clip-rule="evenodd" d="M2.32709 0.0456742C1.35879 0.238263 0.509157 0.990089 0.167494 1.95671C0.0460525 2.30025 0.0317834 2.5186 0.00679784 4.41789C-0.0105048 5.73256 0.00563585 6.69725 0.0505065 7.03065C0.14367 7.72295 0.404302 8.27541 0.844293 8.7134C1.48113 9.34727 2.1571 9.59693 3.23664 9.59693H3.85882L3.87819 11.7759C3.89692 13.89 3.9019 13.9637 4.04387 14.2519C4.71706 15.6181 6.54558 15.7475 7.39276 14.4889C7.68026 14.0617 7.73895 13.6082 7.73895 11.8124C7.73895 10.3076 7.74328 10.2551 7.88551 10.0423C8.27068 9.46574 9.07952 9.46574 9.46469 10.0423C9.59046 10.2305 9.61125 10.3457 9.61125 10.8536C9.61125 11.9003 9.75265 12.3929 10.1833 12.8467C11.1599 13.8756 12.854 13.5159 13.365 12.1711C13.4654 11.907 13.485 11.6703 13.485 10.7261V9.59693H17.9908C22.9287 9.59693 22.9113 9.59816 23.5854 9.21079C23.9759 8.98637 24.4462 8.51203 24.6756 8.1111C24.9126 7.6968 25.0395 7.08237 25.0406 6.3439L25.0416 5.70558L25.6492 5.73741C26.3137 5.77214 26.5696 5.87318 26.8103 6.1958C26.9374 6.36611 26.9474 6.4707 26.9647 7.80985C26.9826 9.1931 26.9782 9.25166 26.8356 9.53089C26.7544 9.6899 26.6008 9.86964 26.4942 9.9304C26.3877 9.99115 23.8477 10.7391 20.8498 11.5925C17.8518 12.4458 15.2467 13.2211 15.0606 13.3153C14.8744 13.4095 14.5726 13.6352 14.3899 13.817C13.7218 14.4816 13.4876 15.1405 13.4859 16.3598L13.485 17.0861H14.448H15.4111L15.4326 16.3158C15.4557 15.4906 15.5073 15.3464 15.8778 15.0736C15.9644 15.0098 18.4902 14.259 21.4907 13.405C24.4912 12.5511 27.1016 11.7771 27.2915 11.6852C28.0614 11.3125 28.7098 10.416 28.8485 9.53237C28.9284 9.0231 28.9326 6.95544 28.855 6.3532C28.7503 5.54153 28.2607 4.75936 27.5717 4.3029C27.0896 3.98358 26.5533 3.8509 25.745 3.8509H25.0416L25.0406 3.22142C25.0401 2.87524 24.9958 2.40561 24.9421 2.17797C24.7249 1.25647 23.9846 0.450995 23.0494 0.1185C22.7762 0.0213988 21.8578 0.0110043 12.678 0.00106178C7.13852 -0.0049425 2.48062 0.0151363 2.32709 0.0456742Z" fill="#2C2B46"/>
<path opacity="0.4" fill-rule="evenodd" clip-rule="evenodd" d="M9.95859 19.18C9.71339 19.2868 9.60989 19.5477 9.61383 20.0494C9.62002 20.8516 9.6425 20.8926 10.6047 21.8567L11.4837 22.7374L10.9253 25.4801C10.4238 27.9434 10.3668 28.2954 10.3668 28.9332C10.3669 29.5363 10.3934 29.7213 10.5424 30.1599C10.8296 31.0049 11.2842 31.6607 11.9224 32.151C12.7226 32.7656 13.4211 33 14.4531 33C15.4852 33 16.1837 32.7656 16.9839 32.151C17.6281 31.6561 18.1067 30.969 18.3709 30.1599C18.5112 29.7301 18.5395 29.5241 18.5394 28.9332C18.5392 28.2958 18.482 27.9419 17.9812 25.4818L17.4232 22.7406L18.327 21.829L19.2307 20.9175V20.3232C19.2307 19.6699 19.1404 19.3609 18.9004 19.1928C18.765 19.0979 18.3239 19.0877 14.4549 19.09C10.9858 19.0921 10.1211 19.1094 9.95859 19.18Z" fill="black"/>
</svg>
