<svg width="33" height="33" viewBox="0 0 33 33" fill="none" xmlns="http://www.w3.org/2000/svg">
<path fill-rule="evenodd" clip-rule="evenodd" d="M1.31011 0.0844184C0.90018 0.211807 0.350994 0.722197 0.153574 1.15925C0.00708863 1.48349 0 1.56322 0 2.88592C0 4.20863 0.00708863 4.28835 0.153574 4.6126C0.363309 5.07687 0.900896 5.56269 1.34912 5.69304C1.64267 5.77844 2.27316 5.78953 5.9382 5.77412L10.1869 5.75619L10.5172 5.58184C10.9287 5.36473 11.3382 4.90717 11.4716 4.51559C11.6181 4.08531 11.6181 1.68654 11.4716 1.25626C11.3382 0.864678 10.9287 0.407113 10.5172 0.190005L10.1869 0.0156611L5.89938 0.00314808C2.30372 -0.00736546 1.56317 0.00572809 1.31011 0.0844184ZM28.0669 0.534566C27.6566 0.663953 27.1071 1.17525 26.9104 1.61075L26.7568 1.95067V6.23994V10.5292L26.9104 10.8691C27.0052 11.0791 27.198 11.3317 27.4148 11.5299C27.9402 12.0103 28.1708 12.0589 29.8035 12.0335C31.1134 12.0132 31.1479 12.0091 31.4713 11.8384C31.653 11.7425 31.9193 11.5304 32.0629 11.3672C32.542 10.8227 32.5272 10.9857 32.5272 6.23994C32.5272 1.4942 32.542 1.65719 32.0629 1.11268C31.9193 0.949432 31.653 0.737355 31.4713 0.641507C31.145 0.469292 31.1242 0.46697 29.7548 0.453296C28.6814 0.442524 28.3006 0.460842 28.0669 0.534566ZM22.9206 1.44724C19.173 1.84876 16.038 4.59789 15.1483 8.26299C14.8997 9.28758 14.8532 10.3643 14.8743 14.625L14.8935 18.5272L19.713 18.5438L24.5324 18.5603V14.8189V11.0775H24.7249H24.9173L24.87 10.6743C24.8082 10.149 24.8082 2.3309 24.87 1.80554L24.9173 1.40242L24.0318 1.41274C23.5448 1.41841 23.0447 1.43396 22.9206 1.44724ZM2.57013 16.3338C2.42339 16.3872 2.0027 16.5605 1.63526 16.7188L0.967111 17.0068L0.948025 19.2183C0.921462 22.2964 1.04571 23.416 1.59032 25.0044C2.61249 27.9856 4.80854 30.4699 7.60795 31.812C8.50485 32.242 8.90929 32.3906 9.82844 32.6278C13.0825 33.4675 16.5099 32.8729 19.3423 30.9772C22.5671 28.8187 24.5324 25.1699 24.5324 21.3409V20.4945H19.7027H14.873L14.849 21.1556C14.821 21.9252 14.6929 22.2594 14.2583 22.6966C13.8404 23.117 13.3874 23.3001 12.7659 23.3001C11.8874 23.3001 11.2317 22.8962 10.8491 22.1192L10.6382 21.6909L10.606 19.3399L10.5738 16.989L9.75191 16.6425C8.56056 16.1402 8.47222 16.138 7.51272 16.5889C6.47501 17.0765 5.94574 17.1883 5.29971 17.0566C5.02498 17.0005 4.53537 16.8188 4.1239 16.6203C3.3426 16.2433 2.99482 16.1792 2.57013 16.3338Z" fill="#2C2B46"/>
<path opacity="0.4" fill-rule="evenodd" clip-rule="evenodd" d="M0.935173 11.2318C0.935173 13.24 0.95058 14.883 0.969471 14.883C0.988361 14.883 1.11164 14.8366 1.24349 14.7798C1.89119 14.5009 2.42233 14.3575 2.93387 14.3234C3.41362 14.2915 3.54432 14.308 3.98313 14.456C4.25882 14.549 4.7229 14.7451 5.01445 14.8918C5.31116 15.041 5.64411 15.161 5.7708 15.1643C5.92154 15.1683 6.25558 15.0476 6.77047 14.8033C7.19581 14.6015 7.67434 14.4069 7.83391 14.371C8.49019 14.2232 9.35531 14.3502 10.1791 14.7152C10.3874 14.8075 10.5688 14.883 10.5821 14.883C10.5954 14.883 10.6063 13.247 10.6063 11.2476V7.61208L10.2861 7.67033C9.88374 7.74347 1.20158 7.71116 1.048 7.63595C0.941232 7.58364 0.935173 7.7765 0.935173 11.2318Z" fill="#2C2B46"/>
</svg>
