<svg width="20" height="20" viewBox="0 0 20 20" fill="none" xmlns="http://www.w3.org/2000/svg">
<path fill-rule="evenodd" clip-rule="evenodd" d="M10 16.6667C13.6819 16.6667 16.6667 13.682 16.6667 10.0001C16.6667 6.31818 13.6819 3.33341 10 3.33341C6.3181 3.33341 3.33333 6.31818 3.33333 10.0001C3.33333 13.682 6.3181 16.6667 10 16.6667ZM10 18.3334C14.6024 18.3334 18.3333 14.6025 18.3333 10.0001C18.3333 5.39771 14.6024 1.66675 10 1.66675C5.39763 1.66675 1.66667 5.39771 1.66667 10.0001C1.66667 14.6025 5.39763 18.3334 10 18.3334Z" fill="#393F33"/>
<path fill-rule="evenodd" clip-rule="evenodd" d="M5.84639 10.9029C6.26813 10.7187 6.7594 10.9112 6.94366 11.3329C7.4588 12.5119 8.63442 13.3332 10 13.3332C11.3656 13.3332 12.5412 12.5119 13.0563 11.3329C13.2406 10.9112 13.7319 10.7187 14.1536 10.9029C14.5753 11.0872 14.7679 11.5785 14.5836 12.0002C13.8128 13.7644 12.0516 14.9999 10 14.9999C7.94839 14.9999 6.1872 13.7644 5.41641 12.0002C5.23214 11.5785 5.42465 11.0872 5.84639 10.9029Z" fill="#393F33"/>
<path d="M7.5 7.50008C7.5 7.96032 7.1269 8.33341 6.66667 8.33341C6.20643 8.33341 5.83333 7.96032 5.83333 7.50008C5.83333 7.03984 6.20643 6.66675 6.66667 6.66675C7.1269 6.66675 7.5 7.03984 7.5 7.50008Z" fill="#393F33"/>
<path d="M14.1667 7.50008C14.1667 7.96032 13.7936 8.33341 13.3333 8.33341C12.8731 8.33341 12.5 7.96032 12.5 7.50008C12.5 7.03984 12.8731 6.66675 13.3333 6.66675C13.7936 6.66675 14.1667 7.03984 14.1667 7.50008Z" fill="#393F33"/>
</svg>
