<svg width="33" height="24" viewBox="0 0 33 24" fill="none" xmlns="http://www.w3.org/2000/svg">
<path fill-rule="evenodd" clip-rule="evenodd" d="M0.479914 0.145153C0.361481 0.225043 0.205051 0.391715 0.132279 0.515608C0.000450341 0.740199 0 0.772478 0 10.3727C0 19.8903 0.00154271 20.007 0.128799 20.2184C0.287224 20.4814 0.571038 20.6628 0.869278 20.6915L1.09455 20.7132L1.13841 20.2706C1.22644 19.3822 1.46924 18.684 1.94696 17.9451C2.45566 17.1584 3.15267 16.557 4.04153 16.1376C4.67813 15.8373 5.1641 15.7181 5.92751 15.675C7.40853 15.5915 8.80075 16.1535 9.83135 17.2508C10.6024 18.0717 11.0258 18.9696 11.1906 20.1334L11.2728 20.7132H15.1999H19.127L19.1438 10.9203C19.1552 4.26261 19.1389 1.02226 19.0929 0.798828C19.0251 0.469414 18.8408 0.229166 18.5356 0.072287C18.4336 0.019908 15.9608 0 9.54509 0H0.69527L0.479914 0.145153ZM9.86066 2.90198C10.0861 2.98773 15.7488 6.52805 16.0036 6.74259C16.3696 7.05055 16.4148 7.66763 16.0989 8.04311C15.8834 8.29933 15.6141 8.39778 15.23 8.36086L14.9088 8.33V10.578C14.9088 12.7039 14.9017 12.8399 14.7791 13.0803C14.6957 13.244 14.5589 13.3809 14.3952 13.4644C14.1476 13.5908 14.0242 13.5941 9.55875 13.5941C5.0107 13.5941 4.97457 13.593 4.73371 13.4576C4.60021 13.3825 4.42967 13.2119 4.35464 13.0784C4.22295 12.844 4.21825 12.758 4.21825 10.5853V8.33502L3.84794 8.36099C3.53901 8.38257 3.44029 8.3617 3.25224 8.23497C2.80755 7.93519 2.67785 7.30929 2.97615 6.90243C3.09458 6.74085 8.60394 3.22102 9.1449 2.96131C9.43876 2.82022 9.60866 2.80617 9.86066 2.90198ZM22.2344 12.8047L21.0912 12.8239V16.7879V20.7519L21.4612 20.7325L21.8311 20.7132L21.8803 20.3589C22.0833 18.8958 22.5509 17.921 23.4629 17.0603C24.5139 16.0685 25.7789 15.5964 27.1745 15.675C27.9896 15.721 28.4432 15.84 29.1735 16.1995C30.743 16.9721 31.8274 18.5192 31.9544 20.1672C31.9924 20.6586 32.0009 20.681 32.1517 20.681C32.381 20.681 32.6717 20.4885 32.8327 20.23C32.9622 20.0222 32.9749 19.9063 32.995 18.7482C33.0416 16.0657 32.7718 15.0985 31.6705 14.0007C31.0972 13.4291 30.2869 12.999 29.506 12.8517C29.015 12.7591 26.0826 12.7401 22.2344 12.8047ZM5.38467 17.6904C4.31233 17.9789 3.43546 18.8604 3.14669 19.9401C3.09935 20.1173 3.06058 20.4652 3.06058 20.7132C3.06058 23.0637 5.58045 24.5725 7.65885 23.4665C8.13478 23.2132 8.74085 22.5757 8.97765 22.0792C9.55333 20.8726 9.31975 19.4796 8.38227 18.5279C7.59182 17.7256 6.44497 17.4051 5.38467 17.6904ZM26.2005 17.6802C24.657 18.0546 23.5817 19.6609 23.854 21.1851C24.2994 23.6788 27.2438 24.6987 29.0537 22.9862C29.7382 22.3386 30.0429 21.6383 30.0429 20.7132C30.0429 19.7881 29.7382 19.0879 29.0537 18.4402C28.2938 17.7213 27.2152 17.434 26.2005 17.6802Z" fill="#2C2B46"/>
<path opacity="0.4" fill-rule="evenodd" clip-rule="evenodd" d="M21.0912 8.03115V10.9085L22.7439 10.8659C23.6528 10.8425 25.3312 10.8234 26.4735 10.8234H28.5503L27.6463 8.8745C27.1492 7.80263 26.6607 6.80678 26.5609 6.66157C26.2837 6.25832 25.705 5.76185 25.2595 5.54499C24.5478 5.19863 24.2425 5.15385 22.5911 5.15385H21.0912V8.03115Z" fill="#2C2B46"/>
<path opacity="0.4" fill-rule="evenodd" clip-rule="evenodd" d="M7.84094 6.03238L6.15042 7.09787V9.37948V11.661H9.56449H12.9785L12.9616 9.36421L12.9447 7.0674L11.2703 6.01627C10.3493 5.43811 9.58137 4.96547 9.56366 4.96599C9.54595 4.9665 8.77075 5.44635 7.84094 6.03238Z" fill="#2C2B46"/>
</svg>
